:SAMPLES-PER-SECOND 30
:FULLY-SPECIFIED
:DEGREES
154
root  16.4634 39.8668 1.32682 84.1825 87.6599 90.3107
RightUpLeg  9.02605 -10.844 -5.94485
RightLeg  16.0905 4.17456 3.36385
RightFoot  -16.0985 0.159229 6.45111
RightToes  0.00048216 0.542163 -0.142577
Spine  9.31537 -0.483939 3.50635
Spine1  14.4852 0.620973 -1.80852
HEad  -17.1883 5.63318 -5.01494
LeftShoulder1  7.07185 -11.3107 -41.3923
LeftArm  -12.8648 13.744 -35.9326
LeftForeArm  24.487 -1.76421 -4.33574
LeftHand  -0.25398 0.0180481 5.50724
RightShoulder  4.33597 8.26001 30.9083
RightArm  -5.5435 -7.87881 37.6855
RightForeArm  10.105 12.5638 6.45141
RightHand  -1.37329 3.11904 -18.8716
LeftUpLeg  -16.7725 14.206 0.168127
LeftLeg  20.0447 1.64854 0.497463
LeftFoot  3.29499 0.580745 -4.67975
LeftToes  1.0625e-005 4.65855e-005 -8.18498e-006
155
root  18.1433 39.7743 0.994784 40.4878 86.0684 46.5013
RightUpLeg  11.7221 -10.6488 -7.85265
RightLeg  15.4275 6.4333 3.27635
RightFoot  -17.0578 0.192749 6.16833
RightToes  0.00048216 0.542163 -0.142577
Spine  8.83564 -0.0181949 3.50439
Spine1  14.5925 1.66407 -3.83919
HEad  -17.7573 7.42961 -5.19991
LeftShoulder1  7.589 -11.5534 -43.8679
LeftArm  -11.7343 22.9999 -36.5437
LeftForeArm  30.4203 -1.01362 -4.48404
LeftHand  -0.25398 0.0180481 5.50724
RightShoulder  4.20597 7.89346 30.9536
RightArm  -7.36051 -3.69967 36.5789
RightForeArm  11.2227 12.564 6.11445
RightHand  -1.27991 2.9857 -17.8969
LeftUpLeg  -14.9712 12.1023 1.09992
LeftLeg  7.64013 7.69422 -2.2804
LeftFoot  3.26046 0.558434 -4.51585
LeftToes  1.0625e-005 4.65855e-005 -8.18498e-006
156
root  19.9123 39.5677 0.606538 24.5435 84.0755 30.4134
RightUpLeg  13.6396 -10.1934 -9.37011
RightLeg  16.2091 8.37502 3.11738
RightFoot  -17.6236 0.210766 6.01574
RightToes  0.00048216 0.542163 -0.142577
Spine  7.92301 0.62467 4.60663
Spine1  14.6521 3.09733 -6.10319
HEad  -17.5565 8.39342 -4.64861
LeftShoulder1  7.81947 -11.5819 -45.1708
LeftArm  -9.76198 31.3304 -37.9755
LeftForeArm  40.8629 -2.33529 -5.24192
LeftHand  -0.25398 0.0180481 5.50724
RightShoulder  3.98956 7.28256 31.036
RightArm  -10.3781 -1.30752 35.968
RightForeArm  9.55138 14.48 5.35601
RightHand  -1.24269 2.95748 -17.4523
LeftUpLeg  -13.1738 4.92841 3.79672
LeftLeg  -0.820919 19.1988 -6.39063
LeftFoot  1.78797 0.531391 -4.69564
LeftToes  1.0625e-005 4.65855e-005 -8.18498e-006
157
root  21.7633 39.2865 0.183999 16.2712 82.5563 22.1478
RightUpLeg  15.2625 -8.80168 -10.4269
RightLeg  18.038 9.04231 3.04725
RightFoot  -17.8229 0.197768 5.61573
RightToes  0.00048216 0.542163 -0.142577
Spine  6.90859 1.41842 5.94226
Spine1  14.5687 4.53291 -7.83415
HEad  -16.6848 8.5168 -3.59297
LeftShoulder1  7.76593 -11.5042 -45.0882
LeftArm  -8.96197 38.6328 -40.471
LeftForeArm  47.8624 -3.50408 -5.89821
LeftHand  -0.25398 0.0180481 5.50724
RightShoulder  3.7611 6.64706 31.101
RightArm  -12.9826 -0.681582 35.3199
RightForeArm  3.28472 18.0722 4.86246
RightHand  -1.35305 3.19329 -18.4345
LeftUpLeg  -12.8265 5.63296 3.55538
LeftLeg  -1.87665 21.2137 -7.08626
LeftFoot  1.92738 0.444359 -3.95632
LeftToes  1.0625e-005 4.65855e-005 -8.18498e-006
158
root  23.6599 38.9753 -0.240932 14.9858 81.8355 21.5024
RightUpLeg  17.0505 -6.87179 -11.9324
RightLeg  20.9615 8.5255 3.33505
RightFoot  -17.2909 0.172435 5.53141
RightToes  0.00048216 0.542163 -0.142577
Spine  6.63441 1.98253 5.83973
Spine1  14.0824 5.21686 -8.2392
HEad  -15.7774 8.55729 -2.7076
LeftShoulder1  7.65924 -11.4019 -44.7611
LeftArm  -10.3544 44.8824 -42.8138
LeftForeArm  46.8149 -3.57139 -5.86801
LeftHand  -0.25398 0.0180481 5.50724
RightShoulder  3.64012 6.23526 31.4266
RightArm  -15.0862 -0.796725 34.2296
RightForeArm  -3.46534 22.1389 5.05458
RightHand  -1.62497 4.03069 -20.1631
LeftUpLeg  -13.1117 6.43427 2.1266
LeftLeg  2.98334 20.8963 -5.2241
LeftFoot  5.03433 0.0415907 -0.594226
LeftToes  1.0625e-005 4.65855e-005 -8.18498e-006
159
root  25.5221 38.68 -0.647329 20.5457 81.6163 28.5344
RightUpLeg  17.9434 -5.26973 -14.4782
RightLeg  26.5469 7.97591 4.10042
RightFoot  -13.9693 0.0490523 6.63597
RightToes  0.00048216 0.542163 -0.142577
Spine  7.55767 2.13537 4.00703
Spine1  13.2886 5.06067 -7.68063
HEad  -15.7495 9.10845 -2.65419
LeftShoulder1  7.65024 -11.3175 -44.9708
LeftArm  -12.246 49.0758 -43.4405
LeftForeArm  42.2352 -3.3757 -5.38968
LeftHand  -0.25398 0.0180481 5.50724
RightShoulder  3.68042 6.15731 32.1458
RightArm  -17.8312 -0.903534 33.2162
RightForeArm  -5.7605 26.0536 5.86909
RightHand  -1.89738 4.98683 -21.3665
LeftUpLeg  -13.342 11.6625 -1.66116
LeftLeg  10.3553 14.2526 -1.55263
LeftFoot  7.54124 -0.679274 3.87993
LeftToes  1.0625e-005 4.65855e-005 -8.18498e-006
160
root  27.223 38.4963 -1.01325 30.4196 80.9926 40.033
RightUpLeg  16.022 -3.35099 -17.3115
RightLeg  35.5347 6.81164 4.93843
RightFoot  -5.44491 -0.500156 8.6655
RightToes  0.00048216 0.542163 -0.142577
Spine  9.10566 2.17382 1.56281
Spine1  12.7849 4.82048 -7.51552
HEad  -16.7711 10.1268 -3.77503
LeftShoulder1  7.72874 -11.3351 -45.3943
LeftArm  -11.9468 49.9864 -41.6783
LeftForeArm  41.0198 -3.59389 -5.2322
LeftHand  -0.25398 0.0180481 5.50724
RightShoulder  3.81774 6.33385 32.8606
RightArm  -20.6012 -0.948791 33.3158
RightForeArm  -4.7821 29.6827 6.71498
RightHand  -2.17465 5.8303 -22.5909
LeftUpLeg  -12.8786 18.5463 -6.15915
LeftLeg  16.3454 6.51783 1.47933
LeftFoot  5.66429 -0.98497 6.34969
LeftToes  1.0625e-005 4.65855e-005 -8.18498e-006
